<svg xmlns="http://www.w3.org/2000/svg" xml:space="preserve" style="enable-background:new 0 0 512 512" viewBox="0 0 512 512">
  <path d="M17.239 43.355h477.52V468.65H17.239z" style="fill:#ff4c3b"/>
  <path d="M17.239 43.355h477.52V56.9H17.239z" style="fill:#ff4c3b"/>
  <path d="M8.776 21.962h494.453v26.275H8.776zM8.776 463.758h494.453v26.276H8.776zM42.046 358.172h196.382v83.271H42.046z" style="fill:#ff4c3b"/>
  <circle cx="140.236" cy="388.386" r="10.451" style="fill:#a6352b"/>
  <path d="M273.568 358.172H469.95v83.271H273.568z" style="fill:#ff4c3b"/>
  <circle cx="371.758" cy="388.386" r="10.45" style="fill:#a6352b"/>
  <path d="M171.761 72.06h129.716v260.941H171.761z" style="fill:#ff4c3b"/>
  <path d="M283.854 72.06h17.623v260.941h-17.623zM327.958 76.647h141.991v134.537H327.958z" style="fill:#ff4c3b"/>
  <circle cx="346.962" cy="145.712" r="10.449" style="fill:#a6352b"/>
  <path d="M327.958 231.92h141.991v101.069H327.958z" style="fill:#ff4c3b"/>
  <circle cx="346.962" cy="284.251" r="10.449" style="fill:#a6352b"/>
  <path d="M232.883 123.834h-96.411L91.421 159.12l12.916 28.985 32.135-13.231v87.585h96.411v-87.585l32.136 13.231 12.918-28.985z" style="fill:#fff"/>
  <path d="M42.046 72.06h129.716v260.941H42.046z" style="fill:#ff4c3b"/>
  <circle cx="149.89" cy="204.315" r="10.45" style="fill:#a6352b"/>
  <path d="M149.885 190.284c-5.771 0-10.45 4.678-10.45 10.449s4.678 10.449 10.45 10.449c5.771 0 10.451-4.677 10.451-10.449s-4.679-10.449-10.451-10.449zm88.543 159.114H42.046a8.776 8.776 0 0 0-8.776 8.776v83.266a8.775 8.775 0 0 0 8.776 8.776h196.382a8.776 8.776 0 0 0 8.776-8.776v-83.266a8.775 8.775 0 0 0-8.776-8.776zm-8.777 83.267H50.823v-65.713h178.829v65.713zM469.953 67.873H327.96a8.776 8.776 0 0 0-8.776 8.776v134.532a8.776 8.776 0 0 0 8.776 8.776h141.992a8.776 8.776 0 0 0 8.776-8.776V76.649a8.774 8.774 0 0 0-8.775-8.776zm-8.777 134.532H336.737v-58.15c.983 4.751 5.189 8.32 10.23 8.32 5.771 0 10.45-4.678 10.45-10.451 0-5.77-4.678-10.449-10.45-10.449-5.042 0-9.247 3.57-10.23 8.319V85.426h124.439v116.979zM512 48.237V21.962a8.775 8.775 0 0 0-8.776-8.776H8.776A8.775 8.775 0 0 0 0 21.962v26.275c0 4.742 3.762 8.595 8.463 8.76v398.005C3.762 455.168 0 459.021 0 463.763v26.275a8.775 8.775 0 0 0 8.776 8.776h494.447a8.776 8.776 0 0 0 8.776-8.776v-26.275c0-4.742-3.762-8.595-8.463-8.76V56.997c4.702-.166 8.464-4.019 8.464-8.76zm-17.553 433.025H17.553v-8.723h476.894v8.723zM26.016 454.986V57.014h459.967v397.973l-459.967-.001zM494.447 39.461H17.553v-8.723h476.894v8.723zm-24.494 183.688H327.96a8.776 8.776 0 0 0-8.776 8.776v101.068a8.776 8.776 0 0 0 8.776 8.776h141.992a8.776 8.776 0 0 0 8.776-8.776V231.926a8.775 8.775 0 0 0-8.775-8.777zm-8.777 101.069H336.737v-41.419c.983 4.75 5.189 8.319 10.23 8.319 5.771 0 10.45-4.677 10.45-10.449 0-5.773-4.678-10.45-10.45-10.45-5.042 0-9.247 3.57-10.23 8.32v-37.837h124.439v83.516zm8.777 25.18H273.571a8.776 8.776 0 0 0-8.776 8.776v83.266a8.775 8.775 0 0 0 8.776 8.776h196.382a8.776 8.776 0 0 0 8.776-8.776v-83.266a8.776 8.776 0 0 0-8.776-8.776zm-8.777 83.267H282.347v-65.713h178.829v65.713zm-320.938-37.41c5.769 0 10.45-4.676 10.45-10.449 0-5.771-4.681-10.449-10.45-10.449-5.774 0-10.452 4.678-10.452 10.449 0 5.772 4.678 10.449 10.452 10.449zm231.524 0c5.771 0 10.449-4.676 10.449-10.449 0-5.771-4.677-10.449-10.449-10.449-5.771 0-10.452 4.678-10.452 10.449.001 5.772 4.682 10.449 10.452 10.449zM42.046 341.77h250.625a8.776 8.776 0 0 0 8.776-8.776V72.055a8.775 8.775 0 0 0-8.776-8.776H42.046a8.776 8.776 0 0 0-8.776 8.776v260.939a8.775 8.775 0 0 0 8.776 8.776zm241.848-189.052c-.181-.17-.348-.352-.546-.508l-45.054-35.285a8.77 8.77 0 0 0-5.411-1.868h-37.087v-1.609h88.098v39.27zM180.541 80.832h103.353v15.064H180.541V80.832zm0 51.778h49.315l37.276 29.194-6.657 14.938-24.25-9.984a8.776 8.776 0 0 0-12.117 8.115v78.809h-43.565V132.61h-.002zm0 138.626h52.342a8.776 8.776 0 0 0 8.776-8.776v-74.48l20.018 8.242a8.778 8.778 0 0 0 11.358-4.543l10.858-24.365v156.904H180.541v-52.982zM50.823 80.832h112.166v243.386H50.823V80.832z" style="fill:#1e252b"/>
</svg>